# xmcd
#
# Track frame offsets:
#	150
#	11813
#	22687
#	35662
#	46687
#	63833
#	83709
#	96254
#
# Disc length: 1516 seconds
#
# Revision: 0
# Processed by: cddbd v1.4PL0 Copyright (c) Steve Scherf et al.
# Submitted via: dBpowerAMP V4.0
#
DISCID=5305ea08
DTITLE=Ricky Robbins - Swingin' doors
DYEAR=1900
DGENRE=
TTITLE0=She thinks I still care
TTITLE1=Together again
TTITLE2=Swingin' doors
TTITLE3=Excuse me
TTITLE4=If tomorrow never comes
TTITLE5=All you ever do is bring me down
TTITLE6=I'm pretending
TTITLE7=Sepanjang jalan kenangan
EXTD=
EXTT0=
EXTT1=
EXTT2=
EXTT3=
EXTT4=
EXTT5=
EXTT6=
EXTT7=
PLAYORDER=
